<svg width="34" height="38" viewBox="0 0 34 38" fill="none" xmlns="http://www.w3.org/2000/svg">
<path d="M17 6.03125C19.1875 6.03125 21.25 6.4375 23.1875 7.25C25.125 8.0625 26.8125 9.21875 28.25 10.7188C29.75 12.1562 30.9062 13.8438 31.7188 15.7812C32.5938 17.7188 33.0312 19.7812 33.0312 21.9688C33.0312 24.7188 32.4062 27.25 31.1562 29.5625C29.9062 31.8125 28.2188 33.6875 26.0938 35.1875C23.9688 36.625 21.5938 37.5312 18.9688 37.9062V33.7812C20.9062 33.4688 22.625 32.7812 24.125 31.7188C25.625 30.5938 26.8125 29.1875 27.6875 27.5C28.5625 25.8125 29 23.9688 29 21.9688C29 19.7812 28.4375 17.7812 27.3125 15.9688C26.25 14.1562 24.8125 12.7188 23 11.6562C21.1875 10.5312 19.1875 9.96875 17 9.96875V15.9688L9.03125 8L17 0.03125V6.03125ZM5 21.9688C5 23.9688 5.4375 25.8125 6.3125 27.5C7.1875 29.1875 8.375 30.5938 9.875 31.7188C11.375 32.7812 13.0938 33.4688 15.0312 33.7812V37.9062C12.4062 37.5312 10.0312 36.625 7.90625 35.1875C5.78125 33.6875 4.09375 31.8125 2.84375 29.5625C1.59375 27.25 0.96875 24.7188 0.96875 21.9688C0.96875 19.7812 1.375 17.7188 2.1875 15.7812C3.0625 13.8438 4.21875 12.1562 5.65625 10.7188L8.5625 13.5312C7.4375 14.5938 6.5625 15.875 5.9375 17.375C5.3125 18.8125 5 20.3438 5 21.9688Z" fill="#D9D9D9"/>
</svg>
